<svg xmlns="http://www.w3.org/2000/svg" viewBox="0 0 584.575 454.741"><defs><style>.a,.b,.e{fill:#fff;}.a,.b,.j{stroke:#000;stroke-miterlimit:10;}.a{stroke-width:10px;}.b,.j{stroke-width:5px;}.c{fill:#3a3333;}.d,.j{fill:none;}.d{stroke:#3a3333;stroke-linecap:round;stroke-linejoin:round;stroke-width:4px;}.f{fill:#c96;}.g{fill:#ffbf66;}.h{fill:#696;}.i{fill:#db87ab;}</style></defs><title>dark-icon</title><circle cx="148.013" cy="48.998" r="44"/><circle cx="364.013" cy="48.998" r="44"/><path d="M370.018,248.188s74.11,27.184,118.742-9.3c8.333-6.811,20.244-7.678,29.014-1.438,12.556,8.934,8.686,24.492-3.761,32.546-14.346,9.282-48.631,30.671-90.236,30.513a20.429,20.429,0,0,0-20.545,20.336C403.11,341.9,400.013,368,400.013,368h-276s-3.772-27.856-3.8-51.393a17.915,17.915,0,0,0-18.733-17.695C70.075,300.088,35.013,291,35.013,291s-42-16-34-31,17-22,54-15,46.869,17.692,87.435-3.654"/><path class="a" d="M430.884,159.205c0,78.54-75.183,107.413-167.926,107.413S95.031,237.745,95.031,159.205,170.215,17,262.958,17,430.884,80.666,430.884,159.205Z"/><path class="b" d="M393.013,380.137c0,52.544-58.2,71.861-130,71.861s-130-19.317-130-71.861-10-93.139,130-95.139C401,283.026,393.013,327.593,393.013,380.137Z"/><path d="M351.96,106.475c0,25.089-16.278,28.909-35.791,28.909s-34.873-3.82-34.873-28.909,9.853-44.509,29.367-44.509S351.96,81.387,351.96,106.475Z"/><path d="M169.333,106.475c0,25.089,16.278,28.909,35.792,28.909S240,131.564,240,106.475s-9.854-44.509-29.367-44.509S169.333,81.387,169.333,106.475Z"/><path class="c" d="M265.154,149.553l10.026-5.765a4.994,4.994,0,0,0-2.49-9.323H252.638a4.994,4.994,0,0,0-2.489,9.323l10.026,5.765A4.991,4.991,0,0,0,265.154,149.553Z"/><path class="d" d="M262.664,150.218V170.4c0,6.006-4.868,9.039-10.874,9.039h0c-6.006,0-14.545-1.2-14.545-7.2v-.139"/><path class="d" d="M262.941,150.218V170.4c0,6.006,4.869,9.039,10.874,9.039h0c6.006,0,14.546-1.2,14.546-7.2v-.139"/><path d="M320.013,446c-3.4,12.943,60.07,9.12,82,3,31.771-8.868,51-49.453,51-79s-36.654,0-72,0S329.031,411.647,320.013,446Z"/><path d="M208.882,445c3.4,12.943-60.07,9.12-82,3-31.771-8.868-51-49.453-51-79s36.654,0,72,0S199.865,410.647,208.882,445Z"/><path class="e" d="M533.746,5.961a7.894,7.894,0,0,1,13.582.881L559,29.978c-8,3.52-11.088,5.339-21.1,4.741-8.984-.536-15.918-5.378-18.665-7.355Z"/><path class="f" d="M490.2,70.17l29.032-42.806c2.747,1.977,9.681,6.819,18.665,7.355,10.012.6,13.1-1.221,21.1-4.741l23.039,45.674-.016.27L564.889,60.874l-14.411,9.989-.219.157-11.383-10.7L523.187,71.408l-.056-.054-14.2-12.819L490.187,70.44Z"/><polygon class="g" points="550.478 70.863 564.889 60.874 582.023 75.922 562.972 395.064 531.238 393.169 550.478 70.863"/><polygon class="g" points="490.187 70.44 508.929 58.535 523.131 71.354 522.659 71.877 503.577 391.518 471.135 389.581 490.187 70.44"/><polygon class="h" points="523.187 71.408 538.876 60.323 550.259 71.02 550.478 70.863 531.238 393.169 503.577 391.518 522.659 71.877 523.131 71.354 523.187 71.408"/><path class="i" d="M531.238,393.169l31.734,1.9-1.464,24.516a34.834,34.834,0,0,1-36.738,32.6l-22.5-1.343a34.834,34.834,0,0,1-32.6-36.738l1.463-24.517,32.442,1.937Z"/><path class="j" d="M519.235,27.364,490.2,70.17l-.016.27L471.135,389.581,469.672,414.1a34.834,34.834,0,0,0,32.6,36.738l22.5,1.343a34.834,34.834,0,0,0,36.738-32.6l1.464-24.516L582.023,75.922l.016-.27L559,29.978"/><path class="j" d="M559,29.978,547.328,6.842a7.894,7.894,0,0,0-13.582-.881l-14.511,21.4c2.747,1.977,9.681,6.819,18.665,7.355C547.912,35.317,551,33.5,559,29.978Z"/><polyline class="j" points="490.187 70.44 508.929 58.535 523.131 71.354 523.187 71.408 538.876 60.323 550.259 71.02 550.478 70.863 564.889 60.874 582.023 75.922"/><polyline class="j" points="471.135 389.581 503.577 391.518 531.238 393.169 562.972 395.064"/><line class="j" x1="522.659" y1="71.877" x2="503.577" y2="391.518"/><line class="j" x1="550.478" y1="70.863" x2="531.238" y2="393.169"/><ellipse class="e" cx="222.013" cy="107.498" rx="9" ry="11.5"/><ellipse class="e" cx="298.013" cy="106.498" rx="9" ry="11.5"/></svg>