<svg xmlns="http://www.w3.org/2000/svg" viewBox="0 0 345.853 276.62"><defs><style>.a{fill:#3a3333;}.b,.d{fill:#fff;}.b,.c{stroke:#3a3333;}.b{stroke-miterlimit:10;stroke-width:10px;}.c{fill:none;stroke-linecap:round;stroke-linejoin:round;stroke-width:4px;}</style></defs><title>favicon</title><circle class="a" cx="64.982" cy="44" r="44"/><circle class="a" cx="280.982" cy="44" r="44"/><path class="b" d="M340.853,164.208c0,78.539-75.183,107.412-167.927,107.412S5,242.747,5,164.208,80.183,22,172.926,22,340.853,85.669,340.853,164.208Z"/><path class="a" d="M261.929,111.478c0,25.089-16.278,28.908-35.791,28.908s-34.874-3.819-34.874-28.908,9.854-44.51,29.367-44.51S261.929,86.389,261.929,111.478Z"/><path class="a" d="M79.3,111.478c0,25.089,16.278,28.908,35.791,28.908s34.874-3.819,34.874-28.908-9.854-44.51-29.367-44.51S79.3,86.389,79.3,111.478Z"/><path class="a" d="M175.122,154.556l10.026-5.766a4.993,4.993,0,0,0-2.489-9.322H162.607a4.993,4.993,0,0,0-2.489,9.322l10.026,5.766A4.994,4.994,0,0,0,175.122,154.556Z"/><path class="c" d="M172.633,155.22V175.4c0,6.006-4.869,9.039-10.874,9.039h0c-6.006,0-14.546-1.2-14.546-7.2V177.1"/><path class="c" d="M172.91,155.22V175.4c0,6.006,4.868,9.039,10.874,9.039h0c6.006,0,14.545-1.2,14.545-7.2V177.1"/><ellipse class="d" cx="130.982" cy="112.5" rx="9" ry="11.5"/><ellipse class="d" cx="206.982" cy="111.5" rx="9" ry="11.5"/></svg>