<svg xmlns="http://www.w3.org/2000/svg" viewBox="0 0 584.575 459.743"><defs><style>.a{fill:#3a3333;}.b,.c,.k{fill:#fff;}.b,.c,.d,.j{stroke:#3a3333;}.b,.c,.j{stroke-miterlimit:10;}.b{stroke-width:10px;}.c,.j{stroke-width:5px;}.d,.j{fill:none;}.d{stroke-linecap:round;stroke-linejoin:round;stroke-width:4px;}.e{fill:#c96;}.f{fill:#ffbf66;}.g{fill:#fc6;}.h{fill:#696;}.i{fill:#db87ab;}</style></defs><title>light-icon</title><path class="a" d="M370.018,253.19s74.11,27.184,118.742-9.3c8.333-6.811,20.244-7.678,29.014-1.438,12.556,8.934,8.686,24.492-3.761,32.546-14.346,9.283-48.631,30.671-90.236,30.513a20.429,20.429,0,0,0-20.545,20.336C403.11,346.9,397.013,373,397.013,373h-270s-6.772-27.856-6.8-51.393a17.916,17.916,0,0,0-18.733-17.7C70.075,305.09,35.013,296,35.013,296s-42-16-34-31,17-22,54-15,46.869,17.693,87.435-3.654"/><circle class="a" cx="155.013" cy="44" r="44"/><circle class="a" cx="371.013" cy="44" r="44"/><path class="b" d="M430.884,164.208c0,78.539-75.183,107.412-167.926,107.412S95.031,242.747,95.031,164.208,170.215,22,262.958,22,430.884,85.669,430.884,164.208Z"/><path class="c" d="M393.013,385.139c0,52.544-58.2,71.861-130,71.861s-130-19.317-130-71.861-10-93.139,130-95.139C401,288.029,393.013,332.6,393.013,385.139Z"/><path class="a" d="M351.96,111.478c0,25.089-16.278,28.908-35.791,28.908S281.3,136.567,281.3,111.478s9.853-44.51,29.367-44.51S351.96,86.389,351.96,111.478Z"/><path class="a" d="M169.333,111.478c0,25.089,16.278,28.908,35.792,28.908S240,136.567,240,111.478s-9.854-44.51-29.367-44.51S169.333,86.389,169.333,111.478Z"/><path class="a" d="M265.154,154.556l10.026-5.766a4.993,4.993,0,0,0-2.49-9.322H252.638a4.993,4.993,0,0,0-2.489,9.322l10.026,5.766A5,5,0,0,0,265.154,154.556Z"/><path class="d" d="M262.664,155.22V175.4c0,6.006-4.868,9.039-10.874,9.039h0c-6.006,0-14.545-1.2-14.545-7.2V177.1"/><path class="d" d="M262.941,155.22V175.4c0,6.006,4.869,9.039,10.874,9.039h0c6.006,0,14.546-1.2,14.546-7.2V177.1"/><path class="a" d="M320.013,449c-3.4,12.944,60.07,9.121,82,3,31.771-8.867,51-49.453,51-79s-36.654,0-72,0S329.031,414.65,320.013,449Z"/><path class="a" d="M208.882,450c3.4,12.944-60.07,9.121-82,3-31.771-8.867-51-49.453-51-79s36.654,0,72,0S199.865,415.65,208.882,450Z"/><path class="a" d="M533.746,10.963a7.9,7.9,0,0,1,13.582.881L559,34.981c-8,3.519-11.088,5.338-21.1,4.741-8.984-.537-15.918-5.378-18.665-7.356Z"/><path class="e" d="M490.2,75.173l29.032-42.807c2.747,1.978,9.681,6.819,18.665,7.356,10.012.6,13.1-1.222,21.1-4.741l23.039,45.674-.016.269L564.889,65.877l-14.411,9.989-.219.157-11.383-10.7L523.187,76.41l-.056-.053-14.2-12.819-18.742,11.9Z"/><polygon class="f" points="550.478 75.866 564.889 65.877 582.023 80.924 562.972 400.066 531.238 398.172 550.478 75.866"/><polygon class="g" points="490.187 75.442 508.929 63.538 523.131 76.357 522.659 76.88 503.577 396.521 471.135 394.584 490.187 75.442"/><polygon class="h" points="523.187 76.41 538.876 65.325 550.259 76.023 550.478 75.866 531.238 398.172 503.577 396.521 522.659 76.88 523.131 76.357 523.187 76.41"/><path class="i" d="M531.238,398.172l31.734,1.894-1.464,24.517a34.834,34.834,0,0,1-36.738,32.6l-22.5-1.343a34.833,34.833,0,0,1-32.6-36.738l1.463-24.516,32.442,1.937Z"/><path class="j" d="M519.235,32.366,490.2,75.173l-.016.269L471.135,394.584,469.672,419.1a34.833,34.833,0,0,0,32.6,36.738l22.5,1.343a34.834,34.834,0,0,0,36.738-32.6l1.464-24.517L582.023,80.924l.016-.269L559,34.981"/><path class="j" d="M559,34.981,547.328,11.844a7.9,7.9,0,0,0-13.582-.881l-14.511,21.4c2.747,1.978,9.681,6.819,18.665,7.356C547.912,40.319,551,38.5,559,34.981Z"/><polyline class="j" points="490.187 75.442 508.929 63.538 523.131 76.357 523.187 76.41 538.876 65.325 550.259 76.023 550.478 75.866 564.889 65.877 582.023 80.924"/><polyline class="j" points="471.135 394.584 503.577 396.521 531.238 398.172 562.972 400.066"/><line class="j" x1="522.659" y1="76.88" x2="503.577" y2="396.521"/><line class="j" x1="550.478" y1="75.866" x2="531.238" y2="398.172"/><ellipse class="k" cx="221.013" cy="112.5" rx="9" ry="11.5"/><ellipse class="k" cx="297.013" cy="111.5" rx="9" ry="11.5"/></svg>