<svg xmlns="http://www.w3.org/2000/svg" viewBox="0 0 408 408"><defs><style>.a{fill:#ebebeb;}.b{fill:#ecb399;}</style></defs><title>sun</title><circle class="a" cx="204" cy="204" r="204"/><circle class="b" cx="204" cy="204" r="61.302"/><path class="b" d="M204.751,56.552a9.186,9.186,0,0,0-1.919,0,7.673,7.673,0,0,0-6.676,7.725v49.242a7.8,7.8,0,0,0,7.8,7.8h0a7.8,7.8,0,0,0,7.8-7.857l-.338-49.239A7.679,7.679,0,0,0,204.751,56.552Z"/><path class="b" d="M325.385,115.408a9.1,9.1,0,0,0-1.194-1.5,7.673,7.673,0,0,0-10.2-.4l-38.5,30.7a7.8,7.8,0,0,0-1.235,10.967h0a7.8,7.8,0,0,0,11.008,1.2l38.286-30.963A7.68,7.68,0,0,0,325.385,115.408Z"/><path class="b" d="M354.585,246.42a9.14,9.14,0,0,0,.429-1.87,7.673,7.673,0,0,0-6.046-8.227l-48.007-10.958a7.8,7.8,0,0,0-9.345,5.872h0a7.8,7.8,0,0,0,5.924,9.356l48.079,10.628A7.681,7.681,0,0,0,354.585,246.42Z"/><path class="b" d="M270.361,350.933a9.131,9.131,0,0,0,1.729-.83,7.672,7.672,0,0,0,2.663-9.856l-21.365-44.366a7.8,7.8,0,0,0-10.417-3.645h0a7.8,7.8,0,0,0-3.622,10.465l21.668,44.216A7.68,7.68,0,0,0,270.361,350.933Z"/><path class="b" d="M136.136,350.248a9.072,9.072,0,0,0,1.727.834,7.671,7.671,0,0,0,9.366-4.063L168.6,302.653a7.8,7.8,0,0,0-3.645-10.417h0a7.8,7.8,0,0,0-10.44,3.694l-21.06,44.509A7.681,7.681,0,0,0,136.136,350.248Z"/><path class="b" d="M52.984,244.879a9.145,9.145,0,0,0,.424,1.87,7.673,7.673,0,0,0,9.017,4.79l48.008-10.957a7.8,7.8,0,0,0,5.871-9.345h0a7.8,7.8,0,0,0-9.4-5.86L58.979,236.663A7.681,7.681,0,0,0,52.984,244.879Z"/><path class="b" d="M83.521,114.172a9.093,9.093,0,0,0-1.2,1.5A7.672,7.672,0,0,0,84.2,125.706l38.5,30.7a7.8,7.8,0,0,0,10.967-1.236h0a7.8,7.8,0,0,0-1.278-11L93.681,113.736A7.679,7.679,0,0,0,83.521,114.172Z"/><path class="b" d="M204.751,56.552a9.186,9.186,0,0,0-1.919,0,7.673,7.673,0,0,0-6.676,7.725v49.242a7.8,7.8,0,0,0,7.8,7.8h0a7.8,7.8,0,0,0,7.8-7.857l-.338-49.239A7.679,7.679,0,0,0,204.751,56.552Z"/></svg>